<?xml version="1.0" encoding="UTF-8"?>
<svg id="Layer_1" data-name="Layer 1" xmlns="http://www.w3.org/2000/svg" viewBox="0 0 1000 1000">
  <defs>
    <style>
      .cls-1 {
        fill: #fff;
      }
    </style>
  </defs>
  <rect x="0" width="1000" height="1000"/>
  <path class="cls-1" d="M493.31,228.74c-2.08,0-4.17,.02-6.23,.08v.4l6.99,102.03,9.68-101.93v-.38c-3.47-.11-6.95-.19-10.43-.19Zm-42.25,3.79c-.02-.15-.06-.3-.09-.45-5.49,.87-10.93,1.91-16.3,3.12,0,.15,.04,.32,.08,.49l43.99,182.94-27.67-186.1Zm-50.98,13.5c-.06-.17-.13-.32-.21-.49-5.21,1.95-10.34,4.03-15.38,6.31,.06,.17,.11,.32,.19,.49l60.8,127.7-45.41-134.01Zm-47.34,23.23c-.09-.15-.19-.28-.3-.42-4.71,2.94-9.32,6-13.84,9.22,.08,.13,.17,.27,.26,.4l121.45,167.58-107.57-176.78Zm-41.92,32.06l-.28-.28c-4.05,3.79-7.97,7.71-11.78,11.74,.08,.09,.15,.19,.25,.27l83.01,72.22-71.2-83.94Zm-34.88,39.58c-.06-.04-.13-.09-.19-.11-3.22,4.51-6.31,9.13-9.26,13.82,.04,.04,.09,.06,.13,.09l176.35,108.92-167.03-122.72Zm-26.47,45.64c-2.27,5.04-4.37,10.15-6.32,15.36l140.83,48.17-134.5-63.53Zm-16.74,49.97c-1.21,5.38-2.27,10.81-3.16,16.3l189.74,28.97-186.57-45.28Zm-6.53,52.3c-.06,2.37-.09,4.75-.09,7.14,0,3.14,.06,6.27,.17,9.39l100.57-7.54-100.64-8.99Z"/>
  <path class="cls-1" d="M760.46,490.57l-111.93,6.97,111.76,9.6c.15-3.71,.23-7.44,.23-11.19,0-1.8-.02-3.6-.06-5.38Zm-6.17-52.28l-182.56,43.89,185.61-27.57c-.85-5.49-1.87-10.94-3.05-16.32Zm-16.4-50.09l-132.97,61.86,139.22-46.47c-1.93-5.21-4.01-10.36-6.25-15.39Zm-25.96-45.92s-.02,.04-.04,.04l-167.58,121.45,176.78-107.57c-2.92-4.73-5.96-9.37-9.17-13.92Zm-34.48-39.95c-.06,.04-.09,.09-.13,.13l-69.63,80.44,81.35-68.62s.08-.08,.11-.11c-3.79-4.07-7.69-8.03-11.7-11.83Zm-41.62-32.46c-.08,.08-.11,.15-.17,.23l-108.92,176.33,122.72-167.03c.04-.06,.09-.13,.13-.19-4.49-3.26-9.07-6.36-13.77-9.34Zm-47.23-23.63c-.04,.08-.06,.17-.09,.25l-48.21,133.55,63.55-127.13c.04-.08,.08-.17,.09-.25-5.02-2.29-10.13-4.43-15.34-6.42Zm-50.96-13.84c-.02,.08-.02,.15-.04,.23l-29.03,190.15,45.35-186.88c.02-.08,.04-.17,.04-.25-5.38-1.25-10.83-2.33-16.32-3.26Z"/>
  <path class="cls-1" d="M494.81,648.04l-9.66,113.79c-.02,.4,0,.8,.04,1.19,2.69,.09,5.4,.13,8.12,.13s5.64-.04,8.45-.13c.04-.36,.04-.72,.04-1.1l-6.99-113.88Zm59.34,107.38l-43.99-182.92,27.65,186.08c.04,.28,.11,.57,.19,.85,5.47-.93,10.91-2.03,16.27-3.28-.02-.25-.06-.49-.11-.74Zm50.03-16.63l-63.89-135.18,48.49,141.49c.06,.13,.11,.27,.17,.4,5.21-1.97,10.32-4.13,15.34-6.42l-.11-.28Zm-75.61-193.71l107.55,176.73c4.7-2.97,9.28-6.08,13.77-9.34l-121.32-167.39Zm76.03,58.53l73.07,85.74c3.98-3.81,7.86-7.73,11.61-11.78l-84.68-73.96Zm-58.68-76.12l166.07,122.04c3.18-4.51,6.21-9.13,9.11-13.82l-175.18-108.22Zm58.68,9.34l133.23,66.99c2.22-5,4.28-10.07,6.19-15.24l-139.42-51.75Zm-35.03-27.48l184.59,44.78c1.19-5.32,2.22-10.7,3.07-16.13l-187.65-28.65Z"/>
  <path class="cls-1" d="M230.08,542.11c.95,5.43,2.06,10.81,3.33,16.13l180.97-43.51-184.3,27.38Zm14.03,50.43c1.97,5.11,4.11,10.13,6.38,15.07l144.08-68.89-150.46,53.82Zm23.54,46.58c2.95,4.62,6.02,9.15,9.24,13.56l164.91-119.54-174.15,105.98Zm32.19,41.13c3.71,3.88,7.54,7.67,11.48,11.34l77.37-87.82-88.85,76.48Zm39.25,33.93c4.43,3.14,8.98,6.14,13.6,9.01l106.7-172.71-120.3,163.7Zm45.12,25.75c4.9,2.2,9.88,4.26,14.96,6.15l51.81-145.35-66.77,139.2Zm49.1,16.46c5.25,1.19,10.55,2.25,15.91,3.14l28.31-185.4-44.21,182.26Z"/>
</svg>