<?xml version="1.0" encoding="UTF-8"?>
<svg id="Layer_1" data-name="Layer 1" xmlns="http://www.w3.org/2000/svg" viewBox="0 0 1000 1000">
  <defs>
    <style>
      .cls-1 {
        fill: #fff;
      }
    </style>
  </defs>
  <rect x="-11.08" y="-3.59" width="1011.08" height="1011.08"/>
  <g>
    <path class="cls-1" d="M272.44,598.01c-.99-2.03-2.94-5.76-5.84-11.22-2.9-5.46-6.38-11.84-10.44-19.15-4.06-7.31-8.49-15.16-13.3-23.54-4.81-8.38-9.61-16.54-14.42-24.47-4.81-7.93-9.41-15.3-13.8-22.11-4.39-6.8-8.16-12.23-11.31-16.28h31.82c1.49,3.6,3.44,7.85,5.84,12.74,2.4,4.89,5.1,10.21,8.08,15.95,2.98,5.74,6.17,11.7,9.57,17.89,3.39,6.19,6.84,12.29,10.32,18.31,3.48,6.02,6.96,11.84,10.44,17.47,3.48,5.63,6.79,10.74,9.94,15.36,4.47-7.2,8.58-13.78,12.31-19.74,3.73-5.96,7.25-11.9,10.56-17.8,3.31-5.91,6.67-12.01,10.07-18.31,3.39-6.3,7-13.39,10.81-21.26,1.32-2.81,2.44-5.23,3.36-7.26,.91-2.03,1.7-3.82,2.36-5.4,.66-1.57,1.24-2.98,1.74-4.22,.5-1.24,.99-2.47,1.49-3.71h22.37c-.83,.9-2.57,3.24-5.22,7-2.65,3.77-5.88,8.52-9.7,14.26-3.81,5.74-8.08,12.32-12.8,19.74-4.72,7.43-9.61,15.33-14.67,23.71-5.06,8.38-10.15,16.99-15.29,25.82-5.14,8.83-10.03,17.58-14.67,26.24"/>
    <path class="cls-1" d="M370.14,598.01c.33-2.14,.66-5.37,.99-9.7,.33-4.33,.66-9.11,.99-14.34,.33-5.23,.62-10.6,.87-16.12,.25-5.51,.37-10.46,.37-14.85,0-1.69-.04-4.56-.12-8.61-.09-4.05-.17-8.3-.25-12.74-.09-4.44-.17-8.63-.25-12.57-.09-3.94-.12-6.69-.12-8.27v-20.25h9.2l8.2,6.58c1.65,1.35,3.31,2.67,4.97,3.97,1.65,1.29,3.56,2.73,5.72,4.3,2.15,1.58,4.6,3.35,7.33,5.32,2.73,1.97,6,4.3,9.82,7,8.29,5.97,15.45,11.11,21.5,15.44,6.05,4.33,11.39,8.16,16.03,11.48,4.64,3.32,8.83,6.3,12.55,8.94,3.73,2.65,7.46,5.26,11.19,7.85,3.73,2.59,7.58,5.29,11.56,8.1,3.98,2.81,8.62,6.02,13.92,9.62v-33.84c0-7.59-.12-14.43-.37-20.5s-.58-11.78-.99-17.13c-.42-5.34-1.04-11.05-1.86-17.13h20.38c-2.15,12.26-3.4,24.44-3.73,36.54-.33,12.1-.5,24.27-.5,36.54v10.97c0,4.05,.04,8.13,.12,12.24,.08,4.11,.16,8.07,.25,11.9,.08,3.83,.29,7.26,.62,10.29h-8.7c-1.33-1.01-3.36-2.62-6.09-4.81-2.74-2.19-5.93-4.67-9.57-7.43-3.65-2.75-7.58-5.71-11.81-8.86-4.23-3.15-8.45-6.22-12.68-9.2-4.23-2.98-8.29-5.82-12.18-8.52-3.9-2.7-7.25-4.95-10.07-6.75-2.15-1.35-4.27-2.73-6.34-4.13-2.07-1.41-4.19-2.84-6.34-4.3l-48.48-34.26v10.63c.16,6.86,.29,12.88,.37,18.06,.08,5.18,.25,9.87,.5,14.09s.45,8.1,.62,11.64c.16,3.54,.37,7,.62,10.38,.25,3.37,.54,6.86,.87,10.46,.33,3.6,.66,7.59,.99,11.98h-20.14Z"/>
    <path class="cls-1" d="M584.68,598.01c.99-9.32,1.7-19.77,2.11-31.34,.41-11.57,.62-23.08,.62-34.54,0-7.75-.04-15.14-.12-22.16-.09-7.02-.21-13.39-.37-19.13-13.09,.11-25.69,.31-34.8,.63-9.12,.31-16.41,1.58-21.88,2.31v-14.8s8.53,.42,14.17,.59c5.63,.17,11.52,.28,17.65,.34,6.13,.06,12.26,.09,18.4,.09h35.18c6.22,0,12.22-.03,18.02-.09,5.8-.05,11.27-.17,16.41-.34,5.14-.17,9.7-.36,13.67-.59v14.8c-3.81-.42-9.86-1.61-18.15-2.08-8.29-.47-21.38-.76-36.29-.86-.17,5.84-.29,11.68-.37,17.52-.09,5.84-.12,11.63-.12,17.35,0,5.06-.04,10.48-.12,16.26-.09,5.79-.09,11.77,0,17.94,.08,6.18,.25,12.47,.5,18.87,.25,6.4,.7,12.8,1.37,19.21"/>
    <path class="cls-1" d="M636.9,598.01c3.64-5.4,7.66-11.39,12.06-17.97,4.39-6.58,8.95-13.39,13.67-20.42,4.72-7.03,9.48-14.2,14.29-21.52,4.8-7.31,9.4-14.43,13.8-21.35,4.39-6.92,8.53-13.53,12.43-19.83,3.89-6.3,7.33-11.98,10.32-17.04h11.68c3.15,5.96,7.17,12.97,12.06,21.01,4.89,8.04,10.11,16.43,15.66,25.15,5.55,8.72,11.1,17.36,16.65,25.9,5.55,8.55,10.52,16.23,14.92,23.04,4.39,6.81,8.04,12.32,10.94,16.54,2.9,4.22,4.35,6.38,4.35,6.5h-30.58c-4.31-10.24-8.79-18.99-13.42-26.24-4.64-7.26-8.54-13.25-11.68-17.97h-62.89c-2.49,3.94-5.93,9.59-10.32,16.96-4.39,7.37-8.66,16.45-12.8,27.25m54.19-94.67l-26.1,41.85h52.95l-26.85-41.85Z"/>
  </g>
</svg>